HIERARCHY
ROOT ui
{
	 OFFSET 0 0 0
	 CHANNELS 3 XPosition YPosition Z Position
	 EndSite
	 {
	 OFFSET 0 -1 0
	 }
}
ROOT li
{
	 OFFSET 0 0 0
	 CHANNELS 3 XPosition YPosition Z Position
	 EndSite
	 {
	 OFFSET 0 -1 0
	 }
}
ROOT ul
{
	 OFFSET 0 0 0
	 CHANNELS 3 XPosition YPosition Z Position
	 EndSite
	 {
	 OFFSET 0 -1 0
	 }
}
ROOT ll
{
	 OFFSET 0 0 0
	 CHANNELS 3 XPosition YPosition Z Position
	 EndSite
	 {
	 OFFSET 0 -1 0
	 }
}
ROOT tt
{
	 OFFSET 0 0 0
	 CHANNELS 3 XPosition YPosition Z Position
	 EndSite
	 {
	 OFFSET 0 -1 0
	 }
}
ROOT tb
{
	 OFFSET 0 0 0
	 CHANNELS 3 XPosition YPosition Z Position
	 EndSite
	 {
	 OFFSET 0 -1 0
	 }
}
ROOT td
{
	 OFFSET 0 0 0
	 CHANNELS 3 XPosition YPosition Z Position
	 EndSite
	 {
	 OFFSET 0 -1 0
	 }
}
ROOT v
{
	 OFFSET 0 0 0
	 CHANNELS 3 XPosition YPosition Z Position
	 EndSite
	 {
	 OFFSET 0 -1 0
	 }
}
ROOT bn
{
	 OFFSET 0 0 0
	 CHANNELS 3 XPosition YPosition Z Position
	 EndSite
	 {
	 OFFSET 0 -1 0
	 }
}
MOTION
Frames: 13
Frame Time: 0.002
-0.0024554901123046875	-0.0014127819538116454	0		0.46031723022460935	-2.3242802734375	0		-1.0691571044921875	0.4459134826660156	0		-0.5604518432617187	-2.719698486328125	0		1.7299140625	-0.2672560119628906	0		3.404447021484375	0.17680209350585938	0		4.59329638671875	0.15777003479003907	0		5.8924208984375	0.31433599853515626	0		-0.24891915893554686	5.9017236328125	0		
-0.0025133280754089356	-0.0014496979713439942	0		0.43129476928710936	-2.323895751953125	0		-1.0092702026367188	0.44200332641601564	0		-0.5255182495117188	-2.72324365234375	0		1.76578466796875	-0.272783447265625	0		3.39722998046875	0.1659139862060547	0		4.57915185546875	0.1519981689453125	0		5.89863623046875	0.2865152587890625	0		-0.2500449066162109	5.902697265625	0		
-0.0025634069442749025	-0.001547690987586975	0		0.4562135009765625	-2.329342529296875	0		-1.08432080078125	0.44295870971679685	0		-0.5693135375976562	-2.708723876953125	0		1.7067742919921876	-0.27000576782226565	0		3.365108642578125	0.16133657836914062	0		4.57909912109375	0.1519846954345703	0		5.8907568359375	0.2868073120117188	0		-0.26434539794921874	5.8927958984375	0		
-0.002605825901031494	-0.0017057050466537476	0		0.4292549438476562	-2.32710498046875	0		-1.0093809204101563	0.4417060241699219	0		-0.529256103515625	-2.7064658203125	0		1.7107945556640625	-0.26618267822265623	0		3.361805908203125	0.14329925537109375	0		4.55886962890625	0.13921687316894532	0		5.894396484375	0.30394046020507814	0		-0.36952450561523437	5.89313037109375	0		
-0.002640043020248413	-0.0019222879409790039	0		0.443237548828125	-2.330509521484375	0		-1.0793626708984374	0.4464596862792969	0		-0.5801287231445312	-2.699970458984375	0		1.7009534912109374	-0.2532132110595703	0		3.398735595703125	0.14064410400390626	0		4.5649306640625	0.14603375244140626	0		5.89855029296875	0.2863889465332031	0		-0.36774200439453125	5.8908759765625	0		
0.012418671607971192	0.003590538024902344	0		0.4354244384765625	-2.320656982421875	0		-1.0103369140625	0.45017315673828123	0		-0.5159666137695312	-2.69317138671875	0		1.703992431640625	-0.24947914123535156	0		3.3625537109375	0.12998432922363282	0		4.546732421875	0.13415277099609374	0		5.89853515625	0.2862205505371094	0		-0.25174014282226564	5.90394140625	0		
-0.002680311918258667	-0.0025238540172576904	0		0.4334576110839844	-2.322942138671875	0		-1.0203660278320312	0.4499534912109375	0		-0.5956296997070313	-2.6743837890625	0		1.7039853515625	-0.24975099182128907	0		3.351308349609375	0.11392483520507812	0		4.54954248046875	0.12193344116210937	0		5.89068115234375	0.286261962890625	0		-0.2661049499511719	5.8928046875	0		
0.0022570810317993164	-0.006975237846374512	0		0.45643487548828127	-2.3306318359375	0		-1.030372802734375	0.4506768798828125	0		-0.5236162719726563	-2.680804443359375	0		1.730547607421875	-0.28144900512695314	0		3.338130126953125	0.10185043334960937	0		4.53464697265625	0.12992877197265626	0		5.89068017578125	0.2859746398925781	0		-0.2663241882324219	5.8924140625	0		
-0.0026824150085449218	-0.003336293935775757	0		0.4316020202636719	-2.325693359375	0		-1.0353160400390624	0.4552754821777344	0		-0.5862906494140625	-2.665368896484375	0		1.7395186767578126	-0.28493948364257815	0		3.3589580078125	0.08925419616699219	0		4.53136328125	0.10971848297119141	0		5.890685546875	0.2856280822753906	0		-0.38569378662109377	5.88265185546875	0		
-0.0026708059310913087	-0.0038144330978393554	0		0.4337369689941406	-2.324181884765625	0		-1.0353232421875	0.4547549133300781	0		-0.5431036376953124	-2.661476318359375	0		1.706685791015625	-0.2748829345703125	0		3.3317998046875	0.07729508209228515	0		4.52545556640625	0.11551039123535156	0		5.9015244140625	0.3073451232910156	0		-0.3727705383300781	5.89297412109375	0		
0.007487660884857178	0.0055239667892456054	0		0.4358835754394531	-2.3227119140625	0		-1.03126806640625	0.4581337585449219	0		-0.5467316284179687	-2.64496533203125	0		1.7097724609375	-0.27137246704101564	0		3.356742919921875	0.07156764221191406	0		4.5093310546875	0.10540953826904297	0		5.9064033203125	0.2842283935546875	0		-0.2528477478027344	5.90275390625	0		
-0.002625328063964844	-0.00489258098602295	0		0.46095498657226563	-2.32759912109375	0		-0.9672686767578125	0.4566355285644531	0		-0.5225059814453125	-2.639883544921875	0		1.7138660888671875	-0.26791006469726564	0		3.33267041015625	0.06449604034423828	0		4.5032548828125	0.09813780975341797	0		5.89440087890625	0.3014326477050781	0		-0.268237548828125	5.89139599609375	0		
-0.0094110746383667	0.007613442897796631	0		0.43209750366210936	-2.327763916015625	0		-1.0512354736328124	0.4581708679199219	0		-0.5420712280273438	-2.620220947265625	0		1.7098553466796875	-0.2723648986816406	0		3.334643798828125	0.06003234481811524	0		4.50610107421875	0.0847151107788086	0		5.89076171875	0.2837078857421875	0		-0.2543115386962891	5.90259716796875	0		
